<?xml version="1.0" encoding="UTF-8"?><svg id="Layer_2" xmlns="http://www.w3.org/2000/svg" xmlns:xlink="http://www.w3.org/1999/xlink" viewBox="0 0 684 447"><defs><style>.cls-1{fill:url(#linear-gradient-2);}.cls-2{fill:#fff;}.cls-3{fill:url(#linear-gradient-17);}.cls-4{fill:url(#linear-gradient-15);}.cls-5{fill:url(#linear-gradient-18);}.cls-6{fill:url(#linear-gradient-14);}.cls-7{fill:url(#linear-gradient-20);}.cls-8{fill:url(#linear-gradient-6);}.cls-9{fill:#f3f7ff;}.cls-10{fill:#2437a3;}.cls-11{fill:#ffb677;}.cls-12{fill:#10c392;}.cls-13{fill:url(#linear-gradient-11);}.cls-14{fill:url(#linear-gradient-10);}.cls-15{fill:#fec40c;}.cls-16{fill:url(#linear-gradient-16);}.cls-17{fill:url(#linear-gradient-21);}.cls-18{fill:url(#linear-gradient-5);}.cls-19{fill:#ffa06f;}.cls-20{fill:url(#linear-gradient-7);}.cls-21{fill:#e6eefc;}.cls-22{fill:#4351a3;}.cls-23{fill:url(#linear-gradient-9);}.cls-24{fill:url(#linear-gradient-22);}.cls-25{fill:url(#linear-gradient-3);}.cls-26{fill:url(#linear-gradient);}.cls-27{fill:#a8b7e6;}.cls-28{fill:#ff8364;}.cls-29{fill:url(#linear-gradient-23);}.cls-30{fill:url(#linear-gradient-19);}.cls-31{fill:url(#linear-gradient-4);}.cls-32{fill:#ffd6a0;}.cls-33{fill:url(#linear-gradient-8);}.cls-34{fill:url(#linear-gradient-12);}.cls-35{fill:#cdd9ff;}.cls-36{fill:url(#linear-gradient-13);}.cls-37{fill:#ff6382;}</style><linearGradient id="linear-gradient" x1="-1493.27" y1="-104.84" x2="-1492.64" y2="-103.52" gradientTransform="translate(573978.41 -26724.42) scale(384.21 -258.6)" gradientUnits="userSpaceOnUse"><stop offset="0" stop-color="#f3f7ff"/><stop offset="1" stop-color="#cdd9ff"/></linearGradient><linearGradient id="linear-gradient-2" x1="-1480.29" y1="-141.76" x2="-1481.19" y2="-138.92" gradientTransform="translate(87608.42 -2240.3) scale(58.93 -18.26)" gradientUnits="userSpaceOnUse"><stop offset="0" stop-color="#d0ffae"/><stop offset="1" stop-color="#34ebe9"/></linearGradient><linearGradient id="linear-gradient-3" x1="-1493.97" y1="-111.33" x2="-1493.97" y2="-113.14" gradientTransform="translate(1022213.65 -6984.96) scale(684 -65.9)" gradientUnits="userSpaceOnUse"><stop offset="0" stop-color="#cdd9ff"/><stop offset="1" stop-color="#f3f7ff" stop-opacity="0"/></linearGradient><linearGradient id="linear-gradient-4" x1="-1478.44" y1="-107.71" x2="-1478.39" y2="-109.06" gradientTransform="translate(75723.44 -11535.41) scale(50.83 -109.77)" gradientUnits="userSpaceOnUse"><stop offset="0" stop-color="#7c203a"/><stop offset="1" stop-color="#f85959"/></linearGradient><linearGradient id="linear-gradient-5" x1="-1468.52" y1="-107.75" x2="-1470.98" y2="-108.65" gradientTransform="translate(49461.17 -11220.82) scale(33.25 -106.7)" xlink:href="#linear-gradient-4"/><linearGradient id="linear-gradient-6" x1="-1459.74" y1="-169.34" x2="-1460.15" y2="-167.72" gradientTransform="translate(35813.93 -1405.06) scale(24.14 -10.56)" xlink:href="#linear-gradient-4"/><linearGradient id="linear-gradient-7" x1="-1454.54" y1="-140.48" x2="-1455.49" y2="-139.99" gradientTransform="translate(31602.32 -2195.38) scale(21.3 -18.37)" xlink:href="#linear-gradient-4"/><linearGradient id="linear-gradient-8" x1="-1465.57" y1="-120.94" x2="-1465.86" y2="-120" gradientTransform="translate(42913.46 -4299.88) scale(28.87 -36.96)" xlink:href="#linear-gradient-4"/><linearGradient id="linear-gradient-9" x1="-1483.09" y1="-109.37" x2="-1483.75" y2="-108.4" gradientTransform="translate(108022.86 -10342.24) scale(72.42 -97.07)" gradientUnits="userSpaceOnUse"><stop offset="0" stop-color="#f5564e"/><stop offset="1" stop-color="#fb9a40"/></linearGradient><linearGradient id="linear-gradient-10" x1="-1468.26" y1="-130.14" x2="-1469.17" y2="-128.11" gradientTransform="translate(48599.67 -3180.18) scale(32.68 -26.58)" gradientUnits="userSpaceOnUse"><stop offset="0" stop-color="#7c203a"/><stop offset="1" stop-color="#7c203a" stop-opacity="0"/></linearGradient><linearGradient id="linear-gradient-11" x1="-1478.6" y1="-131.58" x2="-1479.14" y2="-134.02" gradientTransform="translate(78096.64 -2718.34) scale(52.41 -22.34)" xlink:href="#linear-gradient-10"/><linearGradient id="linear-gradient-12" x1="-1392.88" y1="-135.31" x2="-1387.49" y2="-134.57" gradientTransform="translate(11654.74 -2689.83) scale(7.99 -21.32)" xlink:href="#linear-gradient-10"/><linearGradient id="linear-gradient-13" x1="-1468.83" y1="-106.97" x2="-1466.71" y2="-107.7" gradientTransform="translate(46966.82 -13168.59) scale(31.89 -125.78)" gradientUnits="userSpaceOnUse"><stop offset="0" stop-color="#163a5f"/><stop offset="1" stop-color="#21aba5"/></linearGradient><linearGradient id="linear-gradient-14" x1="-1472.18" y1="-106.73" x2="-1469.88" y2="-107.19" gradientTransform="translate(52649.28 -13729.22) scale(35.7 -131.27)" xlink:href="#linear-gradient-13"/><linearGradient id="linear-gradient-15" x1="-1455.14" y1="-180.28" x2="-1455.14" y2="-178.86" gradientTransform="translate(31082.24 -1258.71) scale(21.28 -9.12)" xlink:href="#linear-gradient-13"/><linearGradient id="linear-gradient-16" x1="-1455.46" y1="-180.32" x2="-1454.94" y2="-178.66" gradientTransform="translate(31113.02 -1258.7) scale(21.28 -9.12)" xlink:href="#linear-gradient-13"/><linearGradient id="linear-gradient-17" x1="-1464.56" y1="-130.2" x2="-1464.21" y2="-129.45" gradientTransform="translate(40544.13 -3103.48) scale(27.6 -24.96)" xlink:href="#linear-gradient-13"/><linearGradient id="linear-gradient-18" x1="-1238.04" y1="-197.72" x2="-1237.77" y2="-197.21" gradientTransform="translate(4260.19 -1251.68) scale(3.31 -7.39)" gradientUnits="userSpaceOnUse"><stop offset="0" stop-color="#ffa06f"/><stop offset="1" stop-color="#ffd6a0"/></linearGradient><linearGradient id="linear-gradient-19" x1="-1482.09" y1="-109.26" x2="-1481.01" y2="-108.54" gradientTransform="translate(92266.58 -10344.47) scale(62.19 -96.92)" gradientUnits="userSpaceOnUse"><stop offset="0" stop-color="#45eba5"/><stop offset="1" stop-color="#c5f0a4"/></linearGradient><linearGradient id="linear-gradient-20" x1="-1316.46" y1="-203.37" x2="-1315.46" y2="-203.37" gradientTransform="translate(6416.08 -1208.06) scale(4.76 -6.96)" xlink:href="#linear-gradient-19"/><linearGradient id="linear-gradient-21" x1="-1473.72" y1="-126.49" x2="-1473.16" y2="-125.35" gradientTransform="translate(57224.05 -3526.69) scale(38.75 -29.69)" gradientUnits="userSpaceOnUse"><stop offset="0" stop-color="#21aba5"/><stop offset="1" stop-color="#21aba5" stop-opacity="0"/></linearGradient><linearGradient id="linear-gradient-22" x1="-1479.52" y1="-122.46" x2="-1478.8" y2="-123.68" gradientTransform="translate(77255.83 -3733.55) scale(52.15 -32.1)" xlink:href="#linear-gradient-21"/><linearGradient id="linear-gradient-23" x1="-818.12" y1="-416.91" x2="-817.91" y2="-416.42" gradientTransform="translate(1188.73 -726.56) scale(1.26 -2.25)" gradientUnits="userSpaceOnUse"><stop offset="0" stop-color="#ffa06f"/><stop offset="1" stop-color="#ffa06f" stop-opacity="0"/></linearGradient></defs><g id="Object"><g><g id="Decor"><g id="Group_21"><path id="Path_1" class="cls-35" d="M177.82,15.86h-.38c-1.9,0-3.45-1.54-3.45-3.45h0c0-1.91,1.54-3.45,3.45-3.45h7.4c1.9,0,3.45-1.54,3.45-3.45h0c0-1.9-1.54-3.45-3.45-3.45h-34.17c-1.9,0-3.45,1.54-3.45,3.45h0c0,1.9,1.54,3.45,3.45,3.45h2.69c1.9,0,3.45,1.54,3.45,3.45h0c0,1.9-1.54,3.45-3.45,3.45h-16.32c-1.9,0-3.45,1.54-3.45,3.45h0c0,1.9,1.54,3.45,3.45,3.45h40.77c1.9,0,3.45-1.54,3.45-3.45h0c0-1.9-1.54-3.45-3.45-3.45h0Z"/><path id="Path_2" class="cls-35" d="M574.7,34.05h-.55c-2.75,0-4.99-2.23-4.99-4.99h0c0-2.75,2.23-4.99,4.99-4.99h10.7c2.75,0,4.99-2.23,4.99-4.99h0c0-2.75-2.23-4.99-4.99-4.99h-49.41c-2.75,0-4.99,2.23-4.99,4.99h0c0,2.75,2.23,4.99,4.99,4.99h3.9c2.75,0,4.99,2.23,4.99,4.99h0c0,2.76-2.23,4.99-4.99,4.99h-23.6c-2.75,0-4.99,2.23-4.99,4.99h0c0,2.75,2.23,4.99,4.99,4.99h58.96c2.75,0,4.99-2.23,4.99-4.99h0c0-2.76-2.23-4.99-4.99-4.99h0Z"/><g id="Group_4"><g id="Group_1"><path id="Path_3" class="cls-35" d="M335.47,16.84c0,9.3,7.54,16.84,16.84,16.84,9.3,0,16.84-7.54,16.84-16.84C369.15,7.54,361.62,0,352.32,0h0c-9.28-.02-16.83,7.49-16.84,16.78v.06Z"/><path id="Path_4" class="cls-35" d="M309.6,89.1c24.24,21.97,61.19,21.97,85.43,0-5.61-26-22.63-44.86-42.7-44.86-20.1,0-37.12,18.87-42.73,44.86Z"/></g><g id="Group_2"><path id="Path_5" class="cls-35" d="M271.93,49.46c0,5.88,4.76,10.65,10.65,10.65,5.88,0,10.65-4.76,10.65-10.65,0-5.88-4.76-10.65-10.65-10.65h0c-5.87,0-10.64,4.74-10.65,10.62v.03Z"/><path id="Path_6" class="cls-35" d="M255.57,95.16c15.33,13.9,38.7,13.9,54.03,0-3.55-16.44-14.31-28.37-27.01-28.37s-23.47,11.93-27.02,28.37Z"/></g><g id="Group_3"><path id="Path_7" class="cls-35" d="M411.39,49.46c0,5.88,4.77,10.65,10.65,10.65,5.88,0,10.65-4.77,10.65-10.65,0-5.88-4.77-10.65-10.65-10.65h0c-5.87-.01-10.64,4.74-10.65,10.61v.03Z"/><path id="Path_8" class="cls-35" d="M395.03,95.16c15.33,13.9,38.7,13.9,54.03,0-3.55-16.44-14.31-28.37-27.01-28.37s-23.47,11.93-27.02,28.37Z"/></g></g><path id="Path_9" class="cls-35" d="M606.82,80.63c-23.65-6.18-47.83,7.98-54.01,31.63-6.18,23.65,7.98,47.83,31.63,54.01,23.65,6.18,47.83-7.98,54.01-31.63,6.18-23.65-7.98-47.83-31.63-54.01h0Zm14.25,38.42l-33.98,19.9c-2.18,1.28-4.98,.55-6.26-1.63,0,0,0,0,0,0l-9.07-15.48c-1.3-2.17-.61-4.98,1.56-6.28,2.17-1.3,4.98-.61,6.28,1.56,.02,.03,.04,.06,.06,.1l6.75,11.52,30.03-17.59c2.19-1.26,4.99-.51,6.25,1.68,1.25,2.17,.53,4.94-1.62,6.22h0Z"/><path id="Path_10" class="cls-35" d="M40.68,136.66l16.72,33.73c8.05,16.23,27.72,22.86,43.95,14.81l44.94-22.28c16.23-8.04,22.86-27.72,14.81-43.95l-16.72-33.73c-5.15-10.34-15.38-17.19-26.9-18.01l-10.27-20.7c-10.11-20.73-35.11-29.35-55.84-19.24-20.73,10.11-29.35,35.11-19.24,55.84,.08,.17,.16,.33,.25,.5l10.26,20.7c-6.32,9.67-7.07,21.96-1.96,32.32Zm42.73-7.76c-4-7.97-.78-17.67,7.19-21.67,7.97-4,17.67-.78,21.67,7.19,3.13,6.24,1.9,13.78-3.06,18.7l4.17,8.42c1.32,2.49,.38,5.57-2.1,6.9-2.49,1.32-5.57,.38-6.9-2.1-.05-.09-.09-.18-.13-.27l-4.17-8.42c-6.86,.98-13.57-2.55-16.67-8.75h0Zm-27.91-36.18c-2.61,1.34-5.03,3.03-7.18,5.02l-8.75-17.66c-8.28-16.7-1.45-36.94,15.24-45.22,16.7-8.28,36.94-1.45,45.22,15.24l8.75,17.66c-2.89,.51-5.7,1.41-8.34,2.68l-44.94,22.28Z"/><g id="Group_13"><g id="Group_5"><path id="Path_11" class="cls-35" d="M591.52,381.1h-5.13c10.27-10.91,19.3-22.93,26.91-35.84,11.47-19.51,27.96-50.97,31.05-90.88l1.6,.12c-2.69,32.76-12.76,64.48-29.47,92.79-12.69,21.56-24.48,33.32-24.97,33.81Z"/></g><g id="Group_12"><path id="Path_12" class="cls-35" d="M644.36,254.38s-8.85-6.32,1.6-20.67c0,0,8.43,12.13,0,20.8l-1.6-.12Z"/><g id="Group_6"><path id="Path_13" class="cls-35" d="M644.06,270.13s-10.72,1.79-13.48-15.75c0,0,13.31,3.66,13.48,15.75Z"/><path id="Path_14" class="cls-35" d="M644.06,270.13s10.72,1.79,13.48-15.75c0,0-13.31,3.66-13.48,15.75Z"/></g><g id="Group_7"><path id="Path_15" class="cls-35" d="M639.87,287.12s-10.87,.37-11.3-17.38c0,0,12.72,5.37,11.3,17.38Z"/><path id="Path_16" class="cls-35" d="M639.87,287.12s10.4,3.18,15.43-13.85c0,0-13.68,1.89-15.43,13.85Z"/></g><g id="Group_8"><path id="Path_17" class="cls-35" d="M636.28,302.23s-10.87,.37-11.3-17.38c0,0,12.72,5.37,11.3,17.38Z"/><path id="Path_18" class="cls-35" d="M636.28,302.23s10.4,3.18,15.43-13.85c0,0-13.68,1.89-15.43,13.85Z"/></g><g id="Group_9"><path id="Path_19" class="cls-35" d="M629.55,318.41s-10.74-1.68-7.83-19.2c0,0,11.48,7.67,7.83,19.2Z"/><path id="Path_20" class="cls-35" d="M629.55,318.41s9.61,5.08,17.76-10.7c0,0-13.79-.72-17.76,10.7Z"/></g><g id="Group_10"><path id="Path_21" class="cls-35" d="M622.05,334.06s-10.7-1.91-7.41-19.36c0,0,11.31,7.92,7.41,19.36Z"/><path id="Path_22" class="cls-35" d="M622.05,334.06s9.5,5.29,17.98-10.31c0,0-13.77-1.02-17.98,10.31Z"/></g><g id="Group_11"><path id="Path_23" class="cls-35" d="M611.79,353.17s-10.57-2.53-6.27-19.76c0,0,10.83,8.56,6.27,19.76Z"/><path id="Path_24" class="cls-35" d="M611.79,353.17s9.18,5.83,18.55-9.25c0,0-13.69-1.82-18.55,9.25Z"/></g></g></g><g id="Group_20"><path id="Path_25" class="cls-35" d="M98.94,360.62s-27.74-3.14-22.87-27.05-16.06-24.54-25.31-33.96,18.01-11.99,18.01-32.85,9.73-27.46,19.47-18.08-.49,29.82,10.71,35.18,17.37,21.16,12.51,32.73,5.58,27.85,.91,37.21-13.42,6.82-13.42,6.82Z"/><g id="Group_14"><rect id="Rectangle_1" class="cls-35" x="99.48" y="359.84" width="1.46" height="21.41" transform="translate(-43.08 14.43) rotate(-6.79)"/></g><g id="Group_15"><path id="Path_26" class="cls-9" d="M98.22,360.71c-3.84-32.32-19.3-96.03-19.45-96.67l1.42-.35c.15,.64,15.63,64.44,19.48,96.84l-1.45,.17Z"/></g><g id="Group_16"><path id="Path_27" class="cls-9" d="M80.49,301.62c-.22,0-.42-.09-.56-.26-3.84-3.85-9.09-5.96-14.53-5.82-.4,0-.73-.32-.73-.73,0-.4,.32-.73,.73-.73h0c10.2,0,15.43,6.08,15.65,6.34,.26,.31,.22,.77-.09,1.03-.13,.11-.3,.17-.47,.17h0Z"/></g><g id="Group_17"><path id="Path_28" class="cls-9" d="M97.05,313.18c-.34,0-.61-.26-.63-.6-.02-.41-.46-10.22,6.01-16.85,.23-.26,.63-.28,.89-.05,.26,.23,.28,.63,.05,.89-.01,.01-.03,.03-.04,.04-6.09,6.24-5.65,15.81-5.65,15.91,.02,.35-.25,.64-.6,.66,0,0,0,0,0,0h-.03Z"/></g><g id="Group_18"><path id="Path_29" class="cls-9" d="M89.8,332.49c-.2,0-.38-.11-.47-.28-1.71-2.88-4.48-4.97-7.71-5.84-.28-.07-.45-.36-.38-.64,.07-.28,.36-.45,.64-.38h0c3.54,.92,6.56,3.21,8.39,6.37,.13,.26,.03,.58-.23,.71h0c-.07,.04-.16,.06-.24,.06Z"/></g><g id="Group_19"><path id="Path_30" class="cls-9" d="M101.69,346.73s-.06,0-.09,0c-.4-.05-.68-.41-.63-.81,.03-.22,.74-5.49,9.8-11.94,.33-.23,.78-.16,1.02,.17s.16,.78-.17,1.02c-8.45,6.01-9.19,10.87-9.2,10.92-.05,.36-.36,.63-.72,.64Z"/></g></g></g></g><g><path id="Rectangle_2" class="cls-22" d="M150.24,356.27V113.94c0-13.72,11.13-24.85,24.85-24.85h355.37c13.72,0,24.85,11.13,24.85,24.85h0v242.34c0,13.73-11.13,24.85-24.85,24.85h0s-355.37,0-355.37,0c-13.72,0-24.85-11.13-24.85-24.85Z"/><rect id="Rectangle_3-4" class="cls-26" x="160.67" y="105.81" width="384.21" height="258.6" rx="10.15" ry="10.15"/><path id="Rectangle_4-4" class="cls-2" d="M267.64,153.41h170.29c12.02,0,21.76,9.74,21.76,21.76h0v189.23H245.88V175.17c0-12.02,9.74-21.76,21.76-21.76h0Z"/><path id="Rectangle_5-2" class="cls-9" d="M170.99,105.81h363.61c5.68,0,10.28,4.6,10.28,10.28v15.01H160.67v-14.98c0-5.7,4.62-10.31,10.31-10.31Z"/><g id="Group_22"><circle id="Ellipse_1" class="cls-37" cx="187.6" cy="118.46" r="3.75"/><circle id="Ellipse_2" class="cls-15" cx="201.41" cy="118.46" r="3.75"/><circle id="Ellipse_3" class="cls-12" cx="215.22" cy="118.46" r="3.75"/></g><circle id="Ellipse_4" class="cls-27" cx="352.78" cy="189.53" r="23.08"/><circle id="Ellipse_5" class="cls-2" cx="352.78" cy="181.95" r="5.59"/><path id="Path_31" class="cls-2" d="M366.67,203.24c-7.57,7.67-19.92,7.75-27.59,.18-.06-.06-.12-.12-.18-.18,2.44-6.9,7.73-11.68,13.88-11.68s11.44,4.78,13.88,11.68Z"/><rect id="Rectangle_6" class="cls-21" x="271.65" y="227.96" width="162.27" height="18.26" rx="8.69" ry="8.69"/><rect id="Rectangle_7" class="cls-21" x="271.65" y="255.56" width="162.27" height="18.26" rx="8.69" ry="8.69"/><rect id="Rectangle_8" class="cls-21" x="286.16" y="286.27" width="66.67" height="9.79" rx="4.89" ry="4.89"/><rect id="Rectangle_9" class="cls-37" x="366.59" y="286.27" width="66.67" height="9.79" rx="4.89" ry="4.89"/><rect id="Rectangle_10" class="cls-21" x="271.76" y="286.27" width="9.79" height="9.79" rx="4.89" ry="4.89"/></g><path id="Rectangle_11-2" class="cls-1" d="M332.45,313.6h40.66c5.04,0,9.13,4.09,9.13,9.13h0c0,5.04-4.09,9.13-9.13,9.13h-40.66c-5.04,0-9.13-4.09-9.13-9.13h0c0-5.04,4.09-9.13,9.13-9.13Z"/><path id="Path_32" class="cls-25" d="M3.09,381.1H680.91c3.2,0,4.28,3.52,1.47,4.78-53.43,23.92-314.15,124.61-680.47,.12-3.12-1.06-2.21-4.9,1.17-4.9Z"/><g id="Man_2"><g id="Leg"><path id="Path_33" class="cls-11" d="M608.24,372.54l6.48-4.3,1.63,3.04-7.09,3.39-1.02-2.13Z"/><path id="Path_35" class="cls-31" d="M563.51,261.75l-16.15,45.17c-1.82,5.08-1.14,10.72,1.82,15.23l32.41,49.37,4.88-2.63-10.67-42.65c-1.75-6.98-.87-14.35,2.47-20.72l18.92-36.11-33.67-7.66Z"/><path id="Path_37" class="cls-18" d="M613.61,265.83h-32.15l.53,35.2c.17,11.18,2.74,22.18,7.55,32.27l18.69,39.22,6.48-4.3s-6.36-19.82-5.05-39.35c1.31-19.53,4.32-50.42,3.95-63.05Z"/><path id="Path_44" class="cls-11" d="M581.59,371.52l4.88-2.63,1.22,2.63-4.93,2.25-1.17-2.25Z"/><path id="Path_45" class="cls-8" d="M581.59,371.52s-.66-.47-2.53,.38c-4.1,2.35-8.06,4.92-11.88,7.7-.38,.24-.49,.75-.25,1.13,.13,.2,.34,.34,.58,.37,.36,.1,12.16,.06,19.34,.03,2.27-.01,4.1-1.86,4.09-4.13,0-.37-.05-.74-.16-1.1l-1.2-4.26c-.21-.76-1-1.19-1.75-.98-.04,.01-.08,.03-.13,.04h0s-2.07,2.18-4,2.25-2.11-1.43-2.11-1.43Z"/><path id="Path_46" class="cls-20" d="M611.29,373.36c-.96,.32-2.02,.18-2.87-.39,0,0-.79-.17-2.18,1.34-2.73,3.73-5.24,7.62-7.53,11.64-.44,1,.36,1.33,.89,1.25,.37-.05,11.21-4.72,17.8-7.57,2.08-.9,3.04-3.32,2.14-5.41-.15-.34-.34-.66-.57-.95l-1.76-3.34c-.17-.35-.42-.65-.72-.89h-.02c-.47-.34-1.11-.23-1.43,.24-.04,.05-.07,.11-.1,.17-.48,1.02-1.78,3.45-3.64,3.9Z"/></g><g id="Head"><path id="Path_34" class="cls-11" d="M599.36,186.15l2.85-6.62,7.15-8.15s0-7.68-4.44-9.93-15.53-3.4-15.53-3.4c0,0-5.95,10.81-7.07,14.29s3.45,5.73,3.45,5.73l-2.3,4.23s-11.46,8.08-.47,10.52c10.99,2.44,14.56-1.6,14.56-1.6l1.81-5.06Z"/><path id="Path_36" class="cls-28" d="M585.77,178.08l-2.3,4.23c-1.07,.78-2.06,1.65-2.97,2.6,1.98,3.29,4.28,6.55,4.28,6.55,0,0-1.2-6.17,.57-6.97s3.02,.21,2.95-1.48,.78-1.41,3.52-1.34,3.8-2.82,3.8-2.82c-3.27,.98-6.78,.71-9.86-.77Z"/><path id="Path_42" class="cls-33" d="M602.21,179.54l2.24-5.21s5.07-2.58,2.96-4.98-5.26-.28-4.84,1.69c-1.64-.91-2.81-2.48-3.22-4.32-.47-1.68,.05-3.48,1.34-4.65,0,0-8.52-1.17-12.4-4.91-3.88-3.73-3.31-12.82-1.83-14.23s2.68,1.62,3.94,4.08,11.55,3.31,16.62,4.93,5.49,6.13,3.95,8.38c0,0,4.37,.92,2.96,7.04s-7.12,9.42-9.3,10.49-2.43,1.67-2.43,1.67Z"/></g><g id="Body"><path id="Path_38" class="cls-23" d="M555.18,193.67l10.37,5.58c3.26,1.75,5.07,5.35,4.54,9.01l-4.05,27.86-12.96-3.66-3.52,7.32,13.95,7.33-2.95,10.72c-.73,2.65,.77,5.39,3.39,6.22,9.41,2.95,31.22,8.51,48.37,3.12,2.14-.67,3.59-2.64,3.59-4.88v-6.88s4.23-3.38,5.49-16.9c.55-7.64,.72-15.3,.48-22.96-.17-8.59-4.38-16.6-11.35-21.62l-11.18-7.77s-2.56,4.98-9.79,4.41-6.1-8.26-6.1-8.26l-28.29-9.96v21.32Z"/><path id="Path_39" class="cls-14" d="M595.77,213.57l2.92,21.31c.35,2.54-1.43,4.88-3.97,5.22-.43,.06-.87,.06-1.3,0l-27.38-3.99s5-7.18,11.2-3.52c6.2,3.66,7.11,.99,8.52-2.54,1.41-3.52,6.55-.85,6.41-6.83-.14-5.99,2.04-3.66,3.59-9.65Z"/><path id="Path_40" class="cls-13" d="M563.51,247.1c5.78,4.23,3.52,2.54,8.26,7.18s13.01,1.27,14,6.09c.99,4.82,8.45,2.79,10.14,6.17,.49,.97-.15,1.96-1.3,2.87,5.98,.2,11.96-.56,17.7-2.24,2.14-.66,3.6-2.64,3.61-4.88v-6.88h0c-6.13,4-13.77,4.95-20.69,2.57l-31.71-10.88Z"/><path id="Path_41" class="cls-34" d="M555.18,172.35v21.32l7.99-18.5-7.99-2.82Z"/><path id="Path_43" class="cls-11" d="M549.57,239.77c-2.09-1.36-4.27-2.59-6.53-3.66-4.37-2.16-6.62-5.96-3.47-6.34s8.36,1.64,8.97,1.41-1.55-2.91,.47-3.19,2,3.87,4.09,4.46l-3.52,7.32Z"/></g></g><g id="Man_1"><g id="Legs"><rect id="Rectangle_12" class="cls-32" x="138.48" y="370.54" width="5.99" height="4.27"/><path id="Path_50" class="cls-36" d="M127.36,287.29s9.63,49.52,11.11,84.06h5.99s19.54-56.41,10.9-125.78l-29.68,2,1.68,39.72Z"/><path id="Path_51" class="cls-6" d="M102.78,248.04s4.08,70.66,5.07,122.5c1.93,1.06,4.27,1.06,6.2,0,0,0,14.65-49.16,20.56-86.35s3.29-44.14,3.29-44.14l-35.12,7.98Z"/><g id="Group_25"><g id="Group_23"><rect id="Rectangle_13" class="cls-9" x="109.54" y="248.69" width=".56" height="1.69"/></g><g id="Group_24"><path id="Path_52" class="cls-9" d="M109.54,253.75v3.37h.56v-3.37h-.56Zm-.01,6.72c-.04,1.1-.22,2.19-.52,3.25l.55,.15c.31-1.1,.49-2.24,.54-3.38l-.56-.02Zm-1.78,6.29c-.54,.96-1.19,1.85-1.94,2.66l.42,.38c.78-.84,1.45-1.77,2.02-2.77l-.5-.28Z"/></g></g><g id="Group_29"><g id="Group_26"><path id="Path_53" class="cls-9" d="M120.75,252.08l-.56-.03c.1-2.17,.16-3.37,.16-3.38l.56,.03s-.05,1.2-.16,3.38Z"/></g><g id="Group_27"><path id="Path_54" class="cls-9" d="M112.01,360.62l-.56-.08c.3-2.1,.61-4.37,.91-6.74l.56,.07c-.3,2.37-.61,4.65-.91,6.75Zm1.73-13.51l-.56-.06c.25-2.21,.5-4.46,.74-6.76l.56,.06c-.24,2.3-.49,4.56-.74,6.77h0Zm1.42-13.55l-.56-.05c.22-2.24,.42-4.49,.63-6.77l.56,.05c-.21,2.28-.42,4.54-.63,6.78h0Zm1.22-13.56l-.56-.05c.19-2.26,.37-4.52,.55-6.78l.56,.04c-.18,2.26-.36,4.52-.55,6.79h0Zm1.07-13.57l-.56-.04c.17-2.28,.34-4.54,.49-6.79l.56,.04c-.16,2.24-.32,4.5-.49,6.79h0Zm.96-13.58l-.56-.04c.16-2.31,.3-4.57,.45-6.79l.56,.04c-.14,2.21-.29,4.48-.45,6.79h0Zm.87-13.59l-.56-.03c.14-2.36,.28-4.63,.4-6.79l.56,.03c-.12,2.17-.26,4.44-.4,6.8h0Zm.78-13.59l-.56-.03c.14-2.5,.26-4.78,.36-6.8l.56,.03c-.1,2.02-.23,4.3-.36,6.8h0Z"/></g><g id="Group_28"><path id="Path_55" class="cls-9" d="M110.39,370.54h-.56c.2-1.07,.4-2.22,.59-3.38l.56,.09c-.2,1.15-.39,2.21-.59,3.28Z"/></g></g><rect id="Rectangle_14" class="cls-32" x="107.85" y="370.54" width="6.2" height="4.27"/><path id="Path_62" class="cls-4" d="M114.04,372.23c.55-.34,1.24-.34,1.79,0,1.17,.52,7.56,5.87,9.86,6.67s2.02,2.21,2.02,2.21h-19.72c-.86,0-1.55-.69-1.55-1.55h0v-5.47c0-.78,.63-1.41,1.41-1.41h0s4.08,3.36,6.2-.44Z"/><path id="Path_63" class="cls-16" d="M144.68,372.23c.55-.34,1.24-.34,1.78,0,1.17,.52,7.56,5.87,9.86,6.67s2.02,2.21,2.02,2.21h-19.72c-.86,0-1.55-.69-1.55-1.55h0v-5.47c0-.78,.63-1.41,1.41-1.41h0s4.08,3.36,6.2-.44Z"/></g><g id="Head-2"><path id="Path_48" class="cls-32" d="M121.73,154.95v-3.21l-1.3-4.06-4.06-4.34s-.56-4.96,1.9-6.94,15.57-1.94,15.57-1.94l4.02,2.68s.14,11.31,0,13.75-2.82,2.96-2.82,2.96v5.49s.89,7.61-2.25,7.37-9.81-7.7-9.81-7.7l-1.23-4.07Z"/><path id="Path_49" class="cls-19" d="M128.18,152.63c-2.96-1.64-3.19-2.82-3.19-2.82,0,0-.19,3.99,1.88,4.6s3.61,1.41,2.96,2.63,4.27,2.11,2.54,6.29c-.82,1.96,.69,1.85,2.51,1.19,.3-1.71,.36-3.45,.17-5.18v-5.49c-2.35,.21-4.72-.21-6.86-1.22Z"/><path id="Path_60" class="cls-3" d="M121.73,151.74v-4.98s-4.59-.52-3.74-3.66,3.43-1.31,4.93,0c.44,.43,1.02,.7,1.63,.77,.39,.03,.74-.26,.77-.66,0-.1,0-.2-.04-.29-.52-1.47-1.59-4.71-1.23-5.64,.47-1.22,3.9,1.55,9.44,1.03,5.54-.52,8.97-3.76,7.93-8.12s-3.85-1.13-9.02-.99c-5.17,.14-9.2-4.5-14.23-1.29s-4.79,12.13-3.05,15.94,4.21,3.24,6.61,7.89Z"/></g><g id="Tab"><path id="Path_64" class="cls-10" d="M156.66,222.09l7.25-31.33c.07-.28,.27-.52,.54-.62l13.4-4.76c.45-.17,.96,.05,1.13,.5,.06,.16,.08,.34,.04,.51l-7.13,30.84c-.06,.27-.25,.5-.51,.61l-13.52,5.25c-.45,.19-.96-.02-1.15-.46-.07-.17-.09-.36-.05-.54Z"/><ellipse id="Ellipse_6" class="cls-9" cx="169.15" cy="203.16" rx="2.96" ry="1.31" transform="translate(-62.62 330.31) rotate(-78.97)"/></g><g id="Body-2"><path id="Path_47" class="cls-5" d="M158.46,205.31c.69,.14,1.39-.18,1.74-.8,.47-1.03,.79-1.1,.79-1.1l-1.71,7.39-1.28-.37c-.55-1.7-.38-3.55,.47-5.12Z"/><path id="Path_56" class="cls-30" d="M121.73,154.95l-12.83,5.93c-6.44,2.98-10.69,9.3-11,16.39l-1.62,37.09c-.2,4.65,3.4,8.58,8.05,8.79,.26,.01,.53,.01,.79,0h0l-3.61,22.88c-.3,1.89,.97,3.67,2.85,4,8.87,1.59,33.37,4.78,51-4.46,1.32-.68,2.07-2.12,1.88-3.6-.74-5.37-2.95-18.37-3.62-24.13l1.39-.34-.58-6.45,4.02-.67v-5.07c-1.65-.1-3.26-.51-4.76-1.22l.7-29.07c.29-7.51-4.62-14.23-11.86-16.24l-7.5-2.3-2.68,6.86-10.62-8.39Z"/><path id="Path_57" class="cls-7" d="M158.46,205.31c-1.65-.1-3.26-.51-4.76-1.22,.02,2.34,.27,4.67,.74,6.96l4.02-.67v-5.07Z"/><path id="Path_58" class="cls-17" d="M154.44,211.05l-34.82-1.27c-2.25-.08-4.01-1.97-3.92-4.22,0-.09,0-.18,.02-.27l2.46-23.93s8.45,5.17,6.2,13.62,6.95,4.37,9.58,8.43,4.6,5.02,8.64,4.16,4.17,2.84,11.85,3.48Z"/><path id="Path_59" class="cls-24" d="M101.52,246.03c-.27,1.74,.79,3.42,2.48,3.91,.99-3.77,3.93-1.96,3.19-5.1-.85-3.57,1.6-5.63,10.14-7.42s.66-8.36,10.04-11.08c9.38-2.72,26.26-8.5,26.26-8.5l-48.5,5.31-3.61,22.88Z"/><path id="Path_61" class="cls-2" d="M114.83,158.14l13.57,10.85c2.58,2.06,6.34,1.65,8.4-.93,.38-.47,.68-1,.9-1.57l3.19-8.2-5.86-1.8-2.68,6.86-10.63-8.4-6.9,3.19Z"/><path id="Path_65" class="cls-32" d="M162.31,216.44c-1.47,.39-2.98,.63-4.5,.69-.96,.08-1.93-.03-2.85-.32l-.52-5.76c1.14-.19,2.24-.54,3.27-1.05,.53-.34,1.2-.41,1.79-.19l-.4,1.73s-.02,.07-.02,.1c-.06,.28,.13,.46,.56,.59,.76,.24,3.71,.5,5.02-.63s2.02-1.42,2.49-.55,.28,4.07-4.84,5.38Z"/><path id="Path_66" class="cls-29" d="M159.12,211.93h0c-.05-.09-.07-.19-.05-.28,0-.03,.01-.07,.02-.1l.4-1.73c-.2-.1-.43-.14-.65-.13-.22,.02-.38,.04-.39,.04h0c-.18,.42-.25,.88-.21,1.33-.03,.45,.3,.84,.75,.88,.04,0,.08,0,.11,0Z"/></g></g></g></g></svg>